<?xml version="1.0" encoding="UTF-8"?>
<svg width="273px" height="83px" viewBox="0 0 273 83" version="1.1" xmlns="http://www.w3.org/2000/svg" xmlns:xlink="http://www.w3.org/1999/xlink">
    <title>Group 2</title>
    <g id="Page-1" stroke="none" stroke-width="1" fill="none" fill-rule="evenodd">
        <g id="Home-Copy" transform="translate(-36.000000, -21.000000)">
            <g id="Group-2" transform="translate(36.000000, 20.999900)">
                <g id="Group">
                    <path d="M38.047,27.661 C35.16,28.301 35.035,34.825 38.414,35.34 C53.359,37.625 61.078,41.036 58.227,56.043 C67.801,55.516 76.203,51.993 82.324,41.774 C76.219,24.852 59.109,22.985 38.047,27.661" id="Fill-4" fill="#009EE0"></path>
                    <path d="M26.609,22.317 C36.543,15.891 46.648,16.196 54.598,20.497 C53.559,10.899 48.633,4.067 41.379,0 C32.652,2.77 28.422,11.938 26.609,22.317" id="Fill-1" fill="#CBD300"></path>
                    <path d="M38.047,27.661 C35.16,28.301 35.035,34.825 38.414,35.34 C53.359,37.625 61.078,41.036 58.227,56.043 C67.801,55.516 76.203,51.993 82.324,41.774 C76.219,24.852 59.109,22.985 38.047,27.661 Z" id="Stroke-6" stroke="#009EE0" stroke-width="0.216"></path>
                    <path d="M27.129,62.793 C37.059,69.215 48.977,66.059 55.633,60.457 C54.594,70.059 49.668,78.184 42.414,82.25 C33.691,79.485 28.938,73.168 27.129,62.793" id="Fill-8" fill="#009EE0"></path>
                    <path d="M27.129,62.793 C37.059,69.215 48.977,66.059 55.633,60.457 C54.594,70.059 49.668,78.184 42.414,82.25 C33.691,79.485 28.938,73.168 27.129,62.793 Z" id="Stroke-10" stroke="#009EE0" stroke-width="0.216"></path>
                    <path d="M44.277,55.786 C47.16,55.145 47.289,48.622 43.91,48.106 C28.961,45.817 21.242,42.411 24.094,27.399 C14.523,27.93 6.117,31.454 0,41.672 C6.102,58.594 23.211,60.457 44.277,55.786" id="Fill-12" fill="#CBD300"></path>
                    <polygon id="Fill-14" fill="#FFFFFF" points="14.164 32.9501 19.863 32.9501 19.863 27.2431 14.164 27.2431"></polygon>
                    <polygon id="Fill-17" fill="#FFFFFF" points="8.797 36.4771 12.684 36.4771 12.684 32.5861 8.797 32.5861"></polygon>
                    <polygon id="Fill-19" fill="#FFFFFF" points="14.359 41.1061 18.246 41.1061 18.246 37.2151 14.359 37.2151"></polygon>
                    <polygon id="Stroke-20" stroke="#FFFFFF" stroke-width="0.216" points="14.359 41.1061 18.246 41.1061 18.246 37.2151 14.359 37.2151"></polygon>
                    <polygon id="Fill-21" fill="#CBD300" points="7.988 27.4381 15.004 27.4381 15.004 20.4151 7.988 20.4151"></polygon>
                    <polygon id="Stroke-22" stroke="#FFFFFF" stroke-width="0.216" points="7.988 27.4381 15.004 27.4381 15.004 20.4151 7.988 20.4151"></polygon>
                    <polygon id="Fill-23" fill="#CBD300" points="1.383 20.8641 6.168 20.8641 6.168 16.0751 1.383 16.0751"></polygon>
                    <polygon id="Stroke-24" stroke="#FFFFFF" stroke-width="0.216" points="1.383 20.8641 6.168 20.8641 6.168 16.0751 1.383 16.0751"></polygon>
                    <polygon id="Fill-25" fill="#CBD300" points="8.23 15.1681 13.015 15.1681 13.015 10.3791 8.23 10.3791"></polygon>
                    <polygon id="Stroke-26" stroke="#FFFFFF" stroke-width="0.216" points="8.23 15.1681 13.015 15.1681 13.015 10.3791 8.23 10.3791"></polygon>
                </g>
                <path d="M112.918,34.633 L99.844,34.633 L99.844,38.922 L112.289,38.922 C114.246,38.922 115.566,39.258 116.25,39.922 C116.941,40.594 117.281,41.832 117.281,43.653 L117.281,46.391 C117.281,48.204 116.941,49.442 116.25,50.114 C115.566,50.778 114.246,51.114 112.289,51.114 L99.961,51.114 C98.004,51.114 96.684,50.778 96,50.114 C95.309,49.442 94.969,48.204 94.969,46.391 L94.969,45.844 L99.07,44.993 L99.07,47.352 L113.18,47.352 L113.18,42.801 L100.734,42.801 C98.793,42.801 97.484,42.465 96.801,41.801 C96.121,41.129 95.781,39.891 95.781,38.071 L95.781,35.868 C95.781,34.047 96.121,32.809 96.801,32.141 C97.484,31.477 98.793,31.141 100.734,31.141 L112.066,31.141 C113.941,31.141 115.238,31.461 115.949,32.102 C116.664,32.747 117.02,33.887 117.02,35.524 L117.02,35.938 L112.918,36.907 L112.918,34.633 Z M123.285,51.114 L133,34.75 L136.836,34.75 L146.699,51.114 L142.223,51.114 L140.156,47.52 L129.336,47.52 L127.273,51.114 L123.285,51.114 Z M131.031,44.536 L138.531,44.536 L134.723,37.719 L131.031,44.536 Z M164.129,37.571 L155.016,37.571 L155.016,42.098 L164.129,42.098 C164.82,42.098 165.297,41.993 165.555,41.793 C165.813,41.594 165.941,41.25 165.941,40.774 L165.941,38.891 C165.941,38.415 165.813,38.071 165.555,37.872 C165.297,37.672 164.82,37.571 164.129,37.571 L164.129,37.571 Z M151.09,51.114 L151.09,34.75 L165.824,34.75 C167.172,34.75 168.152,35.004 168.754,35.5 C169.359,35.997 169.664,36.809 169.664,37.93 L169.664,41.774 C169.664,42.883 169.359,43.684 168.754,44.18 C168.152,44.668 167.172,44.915 165.824,44.915 L163.582,44.915 L171.367,51.114 L165.641,51.114 L158.777,44.915 L155.016,44.915 L155.016,51.114 L151.09,51.114 Z M182.824,51.114 L172.926,34.75 L177.441,34.75 L184.379,46.618 L190.914,34.75 L195.055,34.75 L185.566,51.114 L182.824,51.114 Z M196.066,51.114 L205.777,34.75 L209.617,34.75 L219.477,51.114 L215,51.114 L212.938,47.52 L202.113,47.52 L200.051,51.114 L196.066,51.114 Z M203.813,44.536 L211.313,44.536 L207.5,37.719 L203.813,44.536 Z M223.867,51.114 L223.867,34.75 L227.895,34.75 L227.895,40.969 L240.348,40.969 L240.348,34.75 L244.332,34.75 L244.332,51.114 L240.348,51.114 L240.348,44.219 L227.895,44.219 L227.895,51.114 L223.867,51.114 Z M249.473,51.114 L259.184,34.75 L263.02,34.75 L272.883,51.114 L268.406,51.114 L266.344,47.52 L255.52,47.52 L253.457,51.114 L249.473,51.114 Z M257.219,44.536 L264.719,44.536 L260.906,37.719 L257.219,44.536 Z" id="Fill-27" fill="#E15117"></path>
            </g>
        </g>
    </g>
</svg>